<svg height="478" width="720" xmlns="http://www.w3.org/2000/svg">
<rect height="478" fill="#555" width="720"></rect>
<text fill="#7f7" font-family="Courier New" font-size="12" xml:space="preserve">
<tspan x="10" y="26">2 megabytes installed</tspan>
<tspan x="10" y="42"></tspan>
<tspan x="10" y="58">node_modules</tspan>
<tspan x="10" y="74">└─┬ seaport@2.0.9 </tspan>
<tspan x="10" y="90">  ├── defined@0.0.0 </tspan>
<tspan x="10" y="106">  ├── indexof@0.0.1 </tspan>
<tspan x="10" y="122">  ├── inherits@1.0.2 </tspan>
<tspan x="10" y="138">  ├── merge@1.1.3 </tspan>
<tspan x="10" y="154">  ├── object-keys@0.5.1 </tspan>
<tspan x="10" y="170">  ├─┬ optimist@0.3.7 </tspan>
<tspan x="10" y="186">  │ └── wordwrap@0.0.3 </tspan>
<tspan x="10" y="202">  ├─┬ readable-stream@1.0.34 </tspan>
<tspan x="10" y="218">  │ ├── core-util-is@1.0.2 </tspan>
<tspan x="10" y="234">  │ ├── inherits@2.0.3 </tspan>
<tspan x="10" y="250">  │ ├── isarray@0.0.1 </tspan>
<tspan x="10" y="266">  │ └── string_decoder@0.10.31 </tspan>
<tspan x="10" y="282">  ├─┬ secure-peer@0.2.1 </tspan>
<tspan x="10" y="298">  │ ├─┬ event-stream@3.0.20 </tspan>
<tspan x="10" y="314">  │ │ ├── from@0.1.7 </tspan>
<tspan x="10" y="330">  │ │ ├── map-stream@0.0.7 </tspan>
<tspan x="10" y="346">  │ │ ├── pause-stream@0.0.11 </tspan>
<tspan x="10" y="362">  │ │ └── split@0.2.10 </tspan>
<tspan x="10" y="378">  │ └── through@1.1.2 </tspan>
<tspan x="10" y="394">  ├── semver@1.1.4 </tspan>
<tspan x="10" y="410">  ├── split@0.3.3 </tspan>
<tspan x="10" y="426">  ├─┬ stream-combiner@0.0.4 </tspan>
<tspan x="10" y="442">  │ └── duplexer@0.1.1 </tspan>
<tspan x="10" y="458">  └── through@2.3.8</tspan>
</text>
</svg>
